<mxfile host="app.diagrams.net" modified="2024-07-06T21:11:43.634Z" agent="Mozilla/5.0 (Windows NT 10.0; Win64; x64; rv:127.0) Gecko/20100101 Firefox/127.0" etag="iAn4gv93DZGlOM_EFKKH" version="24.6.4" type="device">
  <diagram id="C5RBs43oDa-KdzZeNtuy" name="Page-1">
    <mxGraphModel dx="1050" dy="537" grid="1" gridSize="10" guides="1" tooltips="1" connect="1" arrows="1" fold="1" page="1" pageScale="1" pageWidth="827" pageHeight="1169" math="0" shadow="0">
      <root>
        <mxCell id="WIyWlLk6GJQsqaUBKTNV-0" />
        <mxCell id="WIyWlLk6GJQsqaUBKTNV-1" parent="WIyWlLk6GJQsqaUBKTNV-0" />
        <mxCell id="0k3KgikBp-nza9NeHePQ-11" style="edgeStyle=orthogonalEdgeStyle;rounded=0;orthogonalLoop=1;jettySize=auto;html=1;entryX=0;entryY=0.5;entryDx=0;entryDy=0;" parent="WIyWlLk6GJQsqaUBKTNV-1" source="0k3KgikBp-nza9NeHePQ-0" target="0k3KgikBp-nza9NeHePQ-1" edge="1">
          <mxGeometry relative="1" as="geometry" />
        </mxCell>
        <mxCell id="0k3KgikBp-nza9NeHePQ-12" style="edgeStyle=orthogonalEdgeStyle;rounded=0;orthogonalLoop=1;jettySize=auto;html=1;entryX=0;entryY=0.5;entryDx=0;entryDy=0;" parent="WIyWlLk6GJQsqaUBKTNV-1" source="0k3KgikBp-nza9NeHePQ-0" target="0k3KgikBp-nza9NeHePQ-2" edge="1">
          <mxGeometry relative="1" as="geometry" />
        </mxCell>
        <mxCell id="0k3KgikBp-nza9NeHePQ-13" style="edgeStyle=orthogonalEdgeStyle;rounded=0;orthogonalLoop=1;jettySize=auto;html=1;entryX=0;entryY=0.5;entryDx=0;entryDy=0;" parent="WIyWlLk6GJQsqaUBKTNV-1" source="0k3KgikBp-nza9NeHePQ-0" target="0k3KgikBp-nza9NeHePQ-3" edge="1">
          <mxGeometry relative="1" as="geometry" />
        </mxCell>
        <mxCell id="0k3KgikBp-nza9NeHePQ-14" style="edgeStyle=orthogonalEdgeStyle;rounded=0;orthogonalLoop=1;jettySize=auto;html=1;entryX=0;entryY=0.5;entryDx=0;entryDy=0;" parent="WIyWlLk6GJQsqaUBKTNV-1" source="0k3KgikBp-nza9NeHePQ-0" target="0k3KgikBp-nza9NeHePQ-6" edge="1">
          <mxGeometry relative="1" as="geometry" />
        </mxCell>
        <mxCell id="0k3KgikBp-nza9NeHePQ-15" style="edgeStyle=orthogonalEdgeStyle;rounded=0;orthogonalLoop=1;jettySize=auto;html=1;entryX=0;entryY=0.5;entryDx=0;entryDy=0;" parent="WIyWlLk6GJQsqaUBKTNV-1" source="0k3KgikBp-nza9NeHePQ-0" target="0k3KgikBp-nza9NeHePQ-7" edge="1">
          <mxGeometry relative="1" as="geometry" />
        </mxCell>
        <mxCell id="0k3KgikBp-nza9NeHePQ-16" style="edgeStyle=orthogonalEdgeStyle;rounded=0;orthogonalLoop=1;jettySize=auto;html=1;entryX=0;entryY=0.5;entryDx=0;entryDy=0;" parent="WIyWlLk6GJQsqaUBKTNV-1" source="0k3KgikBp-nza9NeHePQ-0" target="0k3KgikBp-nza9NeHePQ-8" edge="1">
          <mxGeometry relative="1" as="geometry" />
        </mxCell>
        <mxCell id="0k3KgikBp-nza9NeHePQ-18" style="edgeStyle=orthogonalEdgeStyle;rounded=0;orthogonalLoop=1;jettySize=auto;html=1;" parent="WIyWlLk6GJQsqaUBKTNV-1" source="0k3KgikBp-nza9NeHePQ-0" target="0k3KgikBp-nza9NeHePQ-10" edge="1">
          <mxGeometry relative="1" as="geometry">
            <Array as="points">
              <mxPoint x="285" y="400" />
              <mxPoint x="100" y="400" />
            </Array>
          </mxGeometry>
        </mxCell>
        <mxCell id="0k3KgikBp-nza9NeHePQ-0" value="EvolAlgoLevelGenerator" style="rounded=0;whiteSpace=wrap;html=1;" parent="WIyWlLk6GJQsqaUBKTNV-1" vertex="1">
          <mxGeometry x="205" y="275" width="160" height="50" as="geometry" />
        </mxCell>
        <mxCell id="wZMFUttOqviPNlMiR9GT-2" style="edgeStyle=orthogonalEdgeStyle;rounded=0;orthogonalLoop=1;jettySize=auto;html=1;entryX=1;entryY=0.75;entryDx=0;entryDy=0;" edge="1" parent="WIyWlLk6GJQsqaUBKTNV-1" source="0k3KgikBp-nza9NeHePQ-1" target="0k3KgikBp-nza9NeHePQ-9">
          <mxGeometry relative="1" as="geometry">
            <Array as="points">
              <mxPoint x="540" y="560" />
            </Array>
          </mxGeometry>
        </mxCell>
        <mxCell id="0k3KgikBp-nza9NeHePQ-1" value="&lt;div&gt;LevelTester&lt;/div&gt;" style="rounded=0;whiteSpace=wrap;html=1;" parent="WIyWlLk6GJQsqaUBKTNV-1" vertex="1">
          <mxGeometry x="480" y="470" width="120" height="50" as="geometry" />
        </mxCell>
        <mxCell id="0k3KgikBp-nza9NeHePQ-2" value="EnemyMutator" style="rounded=0;whiteSpace=wrap;html=1;" parent="WIyWlLk6GJQsqaUBKTNV-1" vertex="1">
          <mxGeometry x="480" y="135" width="120" height="50" as="geometry" />
        </mxCell>
        <mxCell id="0k3KgikBp-nza9NeHePQ-3" value="ObstaclesMutator" style="rounded=0;whiteSpace=wrap;html=1;" parent="WIyWlLk6GJQsqaUBKTNV-1" vertex="1">
          <mxGeometry x="480" y="225" width="120" height="50" as="geometry" />
        </mxCell>
        <mxCell id="0k3KgikBp-nza9NeHePQ-19" style="edgeStyle=orthogonalEdgeStyle;rounded=0;orthogonalLoop=1;jettySize=auto;html=1;entryX=0.5;entryY=0;entryDx=0;entryDy=0;" parent="WIyWlLk6GJQsqaUBKTNV-1" source="0k3KgikBp-nza9NeHePQ-4" target="0k3KgikBp-nza9NeHePQ-0" edge="1">
          <mxGeometry relative="1" as="geometry" />
        </mxCell>
        <mxCell id="0k3KgikBp-nza9NeHePQ-4" value="EvolAlgoRepeater" style="rounded=0;whiteSpace=wrap;html=1;" parent="WIyWlLk6GJQsqaUBKTNV-1" vertex="1">
          <mxGeometry x="110" y="135" width="120" height="50" as="geometry" />
        </mxCell>
        <mxCell id="0k3KgikBp-nza9NeHePQ-6" value="DebugLogWriter" style="rounded=0;whiteSpace=wrap;html=1;" parent="WIyWlLk6GJQsqaUBKTNV-1" vertex="1">
          <mxGeometry x="480" y="315" width="120" height="50" as="geometry" />
        </mxCell>
        <mxCell id="0k3KgikBp-nza9NeHePQ-7" value="&lt;div&gt;EvolAlgoUtils&lt;/div&gt;" style="rounded=0;whiteSpace=wrap;html=1;" parent="WIyWlLk6GJQsqaUBKTNV-1" vertex="1">
          <mxGeometry x="480" y="50" width="120" height="50" as="geometry" />
        </mxCell>
        <mxCell id="0k3KgikBp-nza9NeHePQ-8" value="&lt;div&gt;PlaygroundBounds&lt;/div&gt;" style="rounded=0;whiteSpace=wrap;html=1;" parent="WIyWlLk6GJQsqaUBKTNV-1" vertex="1">
          <mxGeometry x="480" y="395" width="120" height="50" as="geometry" />
        </mxCell>
        <mxCell id="0k3KgikBp-nza9NeHePQ-9" value="GameCreatingCore" style="shape=process;whiteSpace=wrap;html=1;backgroundOutline=1;" parent="WIyWlLk6GJQsqaUBKTNV-1" vertex="1">
          <mxGeometry x="230" y="485" width="170" height="100" as="geometry" />
        </mxCell>
        <mxCell id="0k3KgikBp-nza9NeHePQ-10" value="&lt;div&gt;EvolAlgoBase&lt;/div&gt;" style="shape=process;whiteSpace=wrap;html=1;backgroundOutline=1;" parent="WIyWlLk6GJQsqaUBKTNV-1" vertex="1">
          <mxGeometry x="15" y="485" width="170" height="100" as="geometry" />
        </mxCell>
      </root>
    </mxGraphModel>
  </diagram>
</mxfile>
